<?xml version="1.0"?><svg fill="#000000" xmlns="http://www.w3.org/2000/svg"  viewBox="0 0 100 100" width="100px" height="100px">    <path d="M 50.267578 8 C 37.584578 8 27.267578 18.318 27.267578 31 C 27.267578 43.346603 37.047251 53.448705 49.267578 53.974609 L 49.267578 59.091797 C 46.434672 59.570448 44.267578 62.032783 44.267578 65 L 44.267578 85 C 44.267578 88.309 46.958578 91 50.267578 91 C 53.575578 91 56.267578 88.309 56.267578 85 L 56.267578 65 C 56.267578 62.032121 54.101415 59.569666 51.267578 59.091797 L 51.267578 53.974609 C 63.487032 53.448705 73.267578 43.346603 73.267578 31 C 73.267578 18.318 62.950578 8 50.267578 8 z M 50.267578 10 C 61.846578 10 71.267578 19.42 71.267578 31 C 71.267578 42.58 61.846578 52 50.267578 52 C 38.688578 52 29.267578 42.58 29.267578 31 C 29.267578 19.42 38.688578 10 50.267578 10 z M 50.267578 13 C 40.342578 13 32.267578 21.075 32.267578 31 C 32.267578 40.925 40.342578 49 50.267578 49 C 60.192578 49 68.267578 40.925 68.267578 31 C 68.267578 21.075 60.192578 13 50.267578 13 z M 50.267578 14 C 59.641578 14 67.267578 21.626 67.267578 31 C 67.267578 40.374 59.641578 48 50.267578 48 C 40.893578 48 33.267578 40.374 33.267578 31 C 33.267578 21.626 40.893578 14 50.267578 14 z M 50.267578 61 C 52.473578 61 54.267578 62.794 54.267578 65 L 46.767578 65 C 46.491578 65 46.267578 65.224 46.267578 65.5 C 46.267578 65.776 46.491578 66 46.767578 66 L 54.267578 66 L 54.267578 85 C 54.267578 87.206 52.473578 89 50.267578 89 C 48.061578 89 46.267578 87.206 46.267578 85 L 46.267578 65.5 L 46.267578 65 C 46.267578 62.794 48.061578 61 50.267578 61 z M 47.767578 68 C 47.491578 68 47.267578 68.224 47.267578 68.5 L 47.267578 79.5 C 47.267578 79.776 47.491578 80 47.767578 80 C 48.043578 80 48.267578 79.776 48.267578 79.5 L 48.267578 68.5 C 48.267578 68.224 48.043578 68 47.767578 68 z M 47.767578 81 C 47.491578 81 47.267578 81.224 47.267578 81.5 L 47.267578 83.5 C 47.267578 83.776 47.491578 84 47.767578 84 C 48.043578 84 48.267578 83.776 48.267578 83.5 L 48.267578 81.5 C 48.267578 81.224 48.043578 81 47.767578 81 z"/></svg>